<?xml version="1.0" encoding="utf-8"?>
<!-- Generator: Adobe Illustrator 19.0.0, SVG Export Plug-In . SVG Version: 6.00 Build 0)  -->
<svg version="1.1" id="Layer_1" xmlns="http://www.w3.org/2000/svg" xmlns:xlink="http://www.w3.org/1999/xlink" x="0px" y="0px"
	 viewBox="0 0 21.4 5.5" style="enable-background:new 0 0 21.4 5.5;" xml:space="preserve">
<path d="M13.2,1.6v0.7h2.1v0.8h-2.1v0.8h2.3l1.1-1.2l-1-1.2v0H13.2z M3,3h1.3L3.7,1.5L3,3z M9.9,0.8h1.5v4h-0.9l0-3.1L9.1,4.7H8.3
	L6.9,1.6v3.1H5L4.6,3.9h-2L2.3,4.7h-1l1.7-4h1.4L6,4.5V0.8h1.5l1.2,2.7L9.9,0.8z M18.5,0.8h1.2l-1.8,2l1.8,2h-1.2l-1.2-1.3L16,4.7
	h-3.7v-4h3.8l1.2,1.3L18.5,0.8z M5.2,0.6L5.2,0.6L5.2,0.6L5.2,0.6z M18,0l-0.8,0.8L16.5,0H9.3L8.7,1.4L8.1,0H2.4L0,5.5h2.9l0.4-0.9
	h0.8l0.4,0.9h12l0.8-0.9L18,5.5h3.4L19,2.8L21.4,0H18z"/>
</svg>
