<?xml version="1.0" encoding="utf-8"?>
<!-- Generator: Adobe Illustrator 19.0.0, SVG Export Plug-In . SVG Version: 6.00 Build 0)  -->
<svg version="1.1" id="Layer_1" xmlns="http://www.w3.org/2000/svg" xmlns:xlink="http://www.w3.org/1999/xlink" x="0px" y="0px"
	 viewBox="0 0 19.2 14.8" style="enable-background:new 0 0 19.2 14.8;" xml:space="preserve">
<style type="text/css">
	.st0{clip-path:url(#SVGID_2_);}
</style>
<g>
	<defs>
		<rect id="SVGID_1_" y="0" width="19.2" height="14.8"/>
	</defs>
	<clipPath id="SVGID_2_">
		<use xlink:href="#SVGID_1_"  style="overflow:visible;"/>
	</clipPath>
	<path class="st0" d="M19.2,5.9c0,3.3-2.6,5.9-5.9,5.9S7.3,9.2,7.3,5.9C7.3,2.6,10,0,13.3,0S19.2,2.6,19.2,5.9 M6.7,5.9
		c0-2,0.9-3.8,2.3-5C8.1,0.3,7.1,0,5.9,0C2.6,0,0,2.6,0,5.9c0,3.3,2.6,5.9,5.9,5.9c1.1,0,2.2-0.3,3.1-0.9C7.6,9.7,6.7,7.9,6.7,5.9
		 M3.5,14.8v-1c0-0.4-0.2-0.6-0.6-0.6c-0.2,0-0.4,0.1-0.6,0.3c-0.1-0.2-0.3-0.3-0.5-0.3c-0.2,0-0.3,0.1-0.5,0.2v-0.2H1v1.6h0.3v-0.9
		c0-0.3,0.2-0.4,0.4-0.4c0.2,0,0.3,0.1,0.3,0.4v0.9h0.3v-0.9c0-0.3,0.2-0.4,0.4-0.4c0.2,0,0.3,0.1,0.3,0.4v0.9L3.5,14.8L3.5,14.8z
		 M8.6,13.2H8v-0.5H7.7v0.5H7.4v0.3h0.3v0.7c0,0.4,0.1,0.6,0.5,0.6c0.1,0,0.3,0,0.4-0.1l-0.1-0.3l-0.3,0.1c-0.2,0-0.2-0.1-0.2-0.3
		v-0.7h0.6V13.2z M11.5,13.2c-0.2,0-0.3,0.1-0.4,0.2v-0.2h-0.3v1.6h0.3v-0.9c0-0.3,0.1-0.4,0.3-0.4l0.2,0l0.1-0.3L11.5,13.2z
		 M7.1,13.4c-0.2-0.1-0.4-0.2-0.6-0.2c-0.4,0-0.7,0.2-0.7,0.5c0,0.3,0.2,0.4,0.5,0.5l0.2,0c0.2,0,0.3,0.1,0.3,0.2
		c0,0.1-0.1,0.2-0.4,0.2c-0.2,0-0.4-0.1-0.5-0.2l-0.2,0.3c0.2,0.1,0.4,0.2,0.7,0.2c0.5,0,0.7-0.2,0.7-0.5c0-0.3-0.2-0.4-0.5-0.5
		l-0.2,0c-0.1,0-0.3,0-0.3-0.2c0-0.1,0.1-0.2,0.3-0.2c0.2,0,0.4,0.1,0.5,0.1L7.1,13.4z M16.3,13.2c-0.2,0-0.3,0.1-0.4,0.2v-0.2h-0.3
		v1.6h0.3v-0.9c0-0.3,0.1-0.4,0.3-0.4l0.2,0l0.1-0.3L16.3,13.2z M11.8,14c0,0.5,0.3,0.8,0.8,0.8c0.2,0,0.4-0.1,0.6-0.2l-0.2-0.3
		c-0.1,0.1-0.3,0.1-0.4,0.1c-0.3,0-0.5-0.2-0.5-0.5c0-0.3,0.2-0.5,0.5-0.5c0.1,0,0.3,0.1,0.4,0.1l0.2-0.3c-0.2-0.1-0.3-0.2-0.6-0.2
		C12.2,13.2,11.8,13.5,11.8,14 M15.1,14v-0.8h-0.3v0.2c-0.1-0.1-0.3-0.2-0.5-0.2c-0.4,0-0.8,0.3-0.8,0.8c0,0.5,0.3,0.8,0.8,0.8
		c0.2,0,0.4-0.1,0.5-0.2v0.2h0.3V14z M13.8,14c0-0.3,0.2-0.5,0.5-0.5c0.3,0,0.5,0.2,0.5,0.5c0,0.3-0.2,0.5-0.5,0.5
		C14,14.5,13.8,14.3,13.8,14 M9.7,13.2c-0.5,0-0.8,0.3-0.8,0.8c0,0.5,0.3,0.8,0.8,0.8c0.2,0,0.5-0.1,0.6-0.2l-0.2-0.3
		c-0.1,0.1-0.3,0.2-0.5,0.2c-0.2,0-0.4-0.1-0.5-0.4h1.2l0-0.1C10.4,13.5,10.1,13.2,9.7,13.2 M9.6,13.5c0.2,0,0.4,0.1,0.4,0.4H9.2
		C9.3,13.7,9.4,13.5,9.6,13.5 M18.2,14v-1.4h-0.3v0.8c-0.1-0.1-0.3-0.2-0.5-0.2c-0.4,0-0.8,0.3-0.8,0.8c0,0.5,0.3,0.8,0.8,0.8
		c0.2,0,0.4-0.1,0.5-0.2v0.2h0.3V14z M17,14c0-0.3,0.2-0.5,0.5-0.5c0.3,0,0.5,0.2,0.5,0.5c0,0.3-0.2,0.5-0.5,0.5
		C17.1,14.5,17,14.3,17,14 M5.4,14v-0.8H5.1v0.2c-0.1-0.1-0.3-0.2-0.5-0.2c-0.4,0-0.8,0.3-0.8,0.8s0.3,0.8,0.8,0.8
		c0.2,0,0.4-0.1,0.5-0.2v0.2h0.3V14z M4.1,14c0-0.3,0.2-0.5,0.5-0.5c0.3,0,0.5,0.2,0.5,0.5c0,0.3-0.2,0.5-0.5,0.5
		C4.3,14.5,4.1,14.3,4.1,14"/>
</g>
</svg>
