<?xml version="1.0" encoding="utf-8"?>
<!-- Generator: Adobe Illustrator 19.0.0, SVG Export Plug-In . SVG Version: 6.00 Build 0)  -->
<svg version="1.1" id="Layer_1" xmlns="http://www.w3.org/2000/svg" xmlns:xlink="http://www.w3.org/1999/xlink" x="0px" y="0px"
	 viewBox="0 0 10.1 12.2" style="enable-background:new 0 0 10.1 12.2;" xml:space="preserve">
<style type="text/css">
	.st0{clip-path:url(#SVGID_2_);}
</style>
<g>
	<defs>
		<rect id="SVGID_1_" y="0" width="10.1" height="12.2"/>
	</defs>
	<clipPath id="SVGID_2_">
		<use xlink:href="#SVGID_1_"  style="overflow:visible;"/>
	</clipPath>
	<path class="st0" d="M10.1,5c0,0.3,0,0.5-0.1,0.8c-0.4,2.2-1.9,3-3.8,3H6C5.8,8.8,5.6,9,5.5,9.2l-0.4,2.6c0,0.2-0.2,0.4-0.5,0.4
		H3.3c-0.2,0-0.3-0.2-0.3-0.4l0.7-4.5c0,0,0,0,0,0h1.1c2.7,0,4.3-1.3,4.8-3.8C10,3.8,10.1,4.4,10.1,5 M2.9,7.1
		C3,6.7,3.2,6.5,3.6,6.5l1.1,0c2.3,0,3.6-1.1,4.1-3.2C9.3,1.2,7.8,0,5.8,0H2.1C1.8,0,1.6,0.2,1.5,0.5C0.4,8,0,9.9,0,10.5
		c0,0.2,0.1,0.3,0.3,0.3h2L2.9,7.1z"/>
</g>
</svg>
