<!-- Generated by IcoMoon.io -->
<svg version="1.1" xmlns="http://www.w3.org/2000/svg" width="32" height="32" viewBox="0 0 32 32">
<title>smile</title>
<path d="M12.495 11.048c1.006 0 1.829 0.808 1.829 1.813s-0.808 1.813-1.813 1.813c-1.006 0-1.813-0.808-1.813-1.813-0.015-1.006 0.792-1.813 1.798-1.813z"></path>
<path d="M19.459 11.048c1.006 0 1.813 0.808 1.813 1.813s-0.808 1.813-1.813 1.813c-1.006 0-1.813-0.808-1.813-1.813-0.015-1.006 0.808-1.813 1.813-1.813z"></path>
<path fill="none" stroke="#000" stroke-linejoin="round" stroke-linecap="round" stroke-miterlimit="10" stroke-width="2.5905" d="M21.257 17.768c-2.91 2.91-7.634 2.91-10.56 0"></path>
<path fill="none" stroke="#000" stroke-linejoin="round" stroke-linecap="round" stroke-miterlimit="10" stroke-width="2.5905" d="M19.413 4.724h-6.888c-6.171 0-11.23 5.059-11.23 11.23 0 2.225 0.655 4.297 1.783 6.050l-1.783 5.196 5.196-1.783c1.752 1.128 3.825 1.783 6.050 1.783h6.888c6.187 0 11.23-5.059 11.23-11.23 0-6.187-5.059-11.246-11.246-11.246z"></path>
</svg>
