<!-- Generated by IcoMoon.io -->
<svg version="1.1" xmlns="http://www.w3.org/2000/svg" width="32" height="32" viewBox="0 0 32 32">
<title>Vector-Smart-Object1</title>
<path d="M6.694 12.55c-0.070 0.003-0.144 0.006-0.221 0.006-0.768 0-1.194-0.179-1.258-0.259v-0.419c0.355 0.15 0.886 0.202 1.258 0.202 0.090 0 0.192-0.003 0.294-0.010 0.048-0.147 0.118-0.282 0.208-0.406-0.147 0.016-0.314 0.029-0.502 0.029-0.768 0-1.194-0.179-1.258-0.259v-0.419c0.355 0.15 0.886 0.202 1.258 0.202s0.899-0.048 1.258-0.202v0.109c0.122-0.038 0.253-0.061 0.387-0.064v-1.338c0-0.499-1.034-0.63-1.645-0.63s-1.645 0.134-1.645 0.63v2.589c0 0.499 1.034 0.63 1.645 0.63 0.086 0 0.179-0.003 0.278-0.010-0.035-0.122-0.054-0.25-0.058-0.381zM6.474 9.475c0.726 0 1.146 0.157 1.242 0.243-0.099 0.086-0.518 0.243-1.242 0.243-0.726 0-1.146-0.157-1.242-0.243 0.096-0.083 0.515-0.243 1.242-0.243zM5.216 10.15c0.355 0.15 0.886 0.202 1.258 0.202s0.899-0.048 1.258-0.202v0.419c-0.064 0.080-0.486 0.259-1.258 0.259-0.768 0-1.194-0.179-1.258-0.259v-0.419z"></path>
<path d="M8.166 11.331c-0.662 0-1.2 0.538-1.2 1.2s0.538 1.2 1.2 1.2c0.662 0 1.2-0.538 1.2-1.2 0-0.666-0.538-1.2-1.2-1.2zM8.256 13.158v0.086c0 0.051-0.042 0.093-0.093 0.093s-0.093-0.042-0.093-0.093v-0.086c-0.122-0.029-0.221-0.115-0.266-0.23-0.022-0.048 0-0.102 0.045-0.125s0.102 0 0.125 0.045c0 0.003 0 0.003 0.003 0.006 0.032 0.077 0.106 0.125 0.189 0.125 0.099 0 0.205-0.058 0.205-0.179 0-0.032 0-0.131-0.224-0.182h-0.003c-0.32-0.074-0.368-0.259-0.368-0.365 0-0.176 0.125-0.326 0.298-0.355v-0.086c0-0.051 0.042-0.093 0.093-0.093s0.093 0.042 0.093 0.093v0.086c0.122 0.029 0.221 0.115 0.269 0.23 0.019 0.048-0.003 0.102-0.051 0.122s-0.102-0.003-0.122-0.051c-0.032-0.077-0.106-0.125-0.189-0.125-0.099 0-0.205 0.058-0.205 0.179 0 0.032 0 0.131 0.224 0.182h0.003c0.317 0.074 0.365 0.259 0.365 0.365 0.003 0.179-0.125 0.33-0.298 0.358z"></path>
</svg>
