<?xml version="1.0" encoding="utf-8"?>
<!-- Generator: Adobe Illustrator 19.0.0, SVG Export Plug-In . SVG Version: 6.00 Build 0)  -->
<svg version="1.1" id="Layer_1" xmlns="http://www.w3.org/2000/svg" xmlns:xlink="http://www.w3.org/1999/xlink" x="0px" y="0px"
	 viewBox="0 0 20.7 6.3" style="enable-background:new 0 0 20.7 6.3;" xml:space="preserve">
<style type="text/css">
	.st0{clip-path:url(#SVGID_2_);}
</style>
<g>
	<defs>
		<rect id="SVGID_1_" y="0" width="20.7" height="6.3"/>
	</defs>
	<clipPath id="SVGID_2_">
		<use xlink:href="#SVGID_1_"  style="overflow:visible;"/>
	</clipPath>
	<path class="st0" d="M8.3,0.1H10L9,6.2H7.3L8.3,0.1z M13.4,2.6c-0.6-0.3-0.9-0.5-0.9-0.8c0-0.3,0.3-0.5,1-0.5
		c0.5,0,0.9,0.1,1.3,0.2l0.2,0.1L15,0.3C14.7,0.1,14.2,0,13.5,0c-1.7,0-2.8,0.8-2.8,2c0,0.9,0.8,1.4,1.5,1.7C12.8,4,13,4.2,13,4.5
		c0,0.4-0.5,0.6-1,0.6c-0.7,0-1-0.1-1.6-0.3l-0.2-0.1L10,6c0.4,0.2,1.1,0.3,1.9,0.3c1.8,0,2.9-0.8,2.9-2.1C14.8,3.5,14.3,3,13.4,2.6
		 M20.7,6.3h-1.6l-0.2-0.9l-2.1,0l-0.4,0.9h-1.8l2.5-5.6c0.2-0.4,0.5-0.5,0.9-0.5h1.3L20.7,6.3z M18.6,4.1l-0.4-1.8l-0.1-0.5
		l-0.2,0.6l-0.7,1.7H18.6z M5.9,0.1L4.2,4.3L4.1,3.4L3.5,0.6C3.4,0.2,3.1,0.1,2.7,0.1H0l0,0.1c0.7,0.2,1.2,0.4,1.8,0.7l1.5,5.3
		l1.8,0l2.6-6.1H5.9z"/>
</g>
</svg>
