<!-- Generated by IcoMoon.io -->
<svg version="1.1" xmlns="http://www.w3.org/2000/svg" width="32" height="32" viewBox="0 0 32 32">
<title>amex</title>
<path d="M20.114 13.867v1.067h3.2v1.219h-3.2v1.219h3.505l1.676-1.829-1.524-1.829h-3.657zM4.571 16h1.981l-0.914-2.286-1.067 2.286zM15.086 12.648h2.286v6.095h-1.371v-4.724l-2.133 4.571h-1.219l-2.133-4.724v4.724h-2.895l-0.61-1.219h-3.048l-0.457 1.219h-1.524l2.59-6.095h2.133l2.438 5.79v-5.638h2.286l1.829 4.114 1.829-4.114zM28.19 12.648h1.829l-2.743 3.048 2.743 3.048h-1.829l-1.829-1.981-1.981 1.829h-5.638v-6.095h5.79l1.829 1.981 1.829-1.829zM7.924 12.343v0 0 0zM27.429 11.429l-1.219 1.219-1.067-1.219h-10.971l-0.914 2.133-0.914-2.133h-8.686l-3.657 8.381h4.419l0.61-1.371h1.219l0.61 1.371h18.286l1.219-1.371 1.067 1.371h5.181l-3.657-4.114 3.657-4.267h-5.181z"></path>
</svg>
