<!-- Generated by IcoMoon.io -->
<svg version="1.1" xmlns="http://www.w3.org/2000/svg" width="32" height="32" viewBox="0 0 32 32">
<title>mc</title>
<path d="M32.337 13.305c0 5.558-4.379 9.937-9.937 9.937s-10.105-4.379-10.105-9.937c0-5.558 4.547-9.937 10.105-9.937s9.937 4.379 9.937 9.937zM11.284 13.305c0-3.368 1.516-6.4 3.874-8.421-1.516-1.011-3.2-1.516-5.221-1.516-5.558 0-9.937 4.379-9.937 9.937s4.379 9.937 9.937 9.937c1.853 0 3.705-0.505 5.221-1.516-2.358-2.021-3.874-5.053-3.874-8.421zM5.895 28.295v-1.684c0-0.674-0.337-1.011-1.011-1.011-0.337 0-0.674 0.168-1.011 0.505-0.168-0.337-0.505-0.505-0.842-0.505s-0.505 0.168-0.842 0.337v-0.337h-0.505v2.695h0.505v-1.516c0-0.505 0.337-0.674 0.674-0.674s0.505 0.168 0.505 0.674v1.516h0.505v-1.516c0-0.505 0.337-0.674 0.674-0.674s0.505 0.168 0.505 0.674v1.516h0.842zM14.484 25.6h-1.011v-0.842h-0.505v0.842h-0.505v0.505h0.505v1.179c0 0.674 0.168 1.011 0.842 1.011 0.168 0 0.505 0 0.674-0.168l-0.168-0.505-0.505 0.168c-0.337 0-0.337-0.168-0.337-0.505v-1.179h1.011v-0.505zM19.368 25.6c-0.337 0-0.505 0.168-0.674 0.337v-0.337h-0.505v2.695h0.505v-1.516c0-0.505 0.168-0.674 0.505-0.674h0.337l0.168-0.505h-0.337zM11.958 25.937c-0.337-0.168-0.674-0.337-1.011-0.337-0.674 0-1.179 0.337-1.179 0.842s0.337 0.674 0.842 0.842h0.337c0.337 0 0.505 0.168 0.505 0.337s-0.168 0.337-0.674 0.337c-0.337 0-0.674-0.168-0.842-0.337l-0.337 0.505c0.337 0.168 0.674 0.337 1.179 0.337 0.842 0 1.179-0.337 1.179-0.842s-0.337-0.674-0.842-0.842h-0.337c-0.168 0-0.505 0-0.505-0.337 0-0.168 0.168-0.337 0.505-0.337s0.674 0.168 0.842 0.168l0.337-0.337zM27.453 25.6c-0.337 0-0.505 0.168-0.674 0.337v-0.337h-0.505v2.695h0.505v-1.516c0-0.505 0.168-0.674 0.505-0.674h0.337l0.168-0.505h-0.337zM19.874 26.947c0 0.842 0.505 1.347 1.347 1.347 0.337 0 0.674-0.168 1.011-0.337l-0.337-0.505c-0.168 0.168-0.505 0.168-0.674 0.168-0.505 0-0.842-0.337-0.842-0.842s0.337-0.842 0.842-0.842c0.168 0 0.505 0.168 0.674 0.168l0.337-0.505c-0.337-0.168-0.505-0.337-1.011-0.337-0.674 0.337-1.347 0.842-1.347 1.684zM25.432 26.947v-1.347h-0.505v0.337c-0.168-0.168-0.505-0.337-0.842-0.337-0.674 0-1.347 0.505-1.347 1.347s0.505 1.347 1.347 1.347c0.337 0 0.674-0.168 0.842-0.337v0.337h0.505v-1.347zM23.242 26.947c0-0.505 0.337-0.842 0.842-0.842s0.842 0.337 0.842 0.842c0 0.505-0.337 0.842-0.842 0.842s-0.842-0.337-0.842-0.842zM16.337 25.6c-0.842 0-1.347 0.505-1.347 1.347s0.505 1.347 1.347 1.347c0.337 0 0.842-0.168 1.011-0.337l-0.337-0.505c-0.168 0.168-0.505 0.337-0.842 0.337s-0.674-0.168-0.842-0.674h2.021v-0.168c0.168-0.842-0.337-1.347-1.011-1.347zM16.168 26.105c0.337 0 0.674 0.168 0.674 0.674h-1.347c0.168-0.337 0.337-0.674 0.674-0.674zM30.653 26.947v-2.358h-0.505v1.347c-0.168-0.168-0.505-0.337-0.842-0.337-0.674 0-1.347 0.505-1.347 1.347s0.505 1.347 1.347 1.347c0.337 0 0.674-0.168 0.842-0.337v0.337h0.505v-1.347zM28.632 26.947c0-0.505 0.337-0.842 0.842-0.842s0.842 0.337 0.842 0.842c0 0.505-0.337 0.842-0.842 0.842-0.674 0-0.842-0.337-0.842-0.842zM9.095 26.947v-1.347h-0.505v0.337c-0.168-0.168-0.505-0.337-0.842-0.337-0.674 0-1.347 0.505-1.347 1.347s0.505 1.347 1.347 1.347c0.337 0 0.674-0.168 0.842-0.337v0.337h0.505v-1.347zM6.905 26.947c0-0.505 0.337-0.842 0.842-0.842s0.842 0.337 0.842 0.842c0 0.505-0.337 0.842-0.842 0.842s-0.842-0.337-0.842-0.842z"></path>
</svg>
