<!-- Generated by IcoMoon.io -->
<svg version="1.1" xmlns="http://www.w3.org/2000/svg" width="32" height="32" viewBox="0 0 32 32">
<title>paypal</title>
<path d="M29.6 13.333c0 0.8 0 1.333-0.267 2.133-1.067 5.867-5.067 8-10.133 8h-0.533c-0.533 0-1.067 0.533-1.333 1.067l-1.067 6.933c0 0.533-0.533 1.067-1.333 1.067h-3.467c-0.533 0-0.8-0.533-0.8-1.067l1.867-12c0 0 0 0 0 0h2.933c7.2 0 11.467-3.467 12.8-10.133 1.067 0.8 1.333 2.4 1.333 4zM10.4 18.933c0.267-1.067 0.8-1.6 1.867-1.6h2.933c6.133 0 9.6-2.933 10.933-8.533s-2.667-8.8-8-8.8h-9.867c-0.8 0-1.333 0.533-1.6 1.333-2.933 20-4 25.067-4 26.667 0 0.533 0.267 0.8 0.8 0.8h5.333l1.6-9.867z"></path>
</svg>
