<!-- Generated by IcoMoon.io -->
<svg version="1.1" xmlns="http://www.w3.org/2000/svg" width="32" height="32" viewBox="0 0 32 32">
<title>shoe</title>
<path d="M31.519 12.459l-1.91 1.315v-2.631z"></path>
<path fill="none" stroke="#000" stroke-linejoin="round" stroke-linecap="round" stroke-miterlimit="10" stroke-width="1.0119" d="M31.519 12.459l-1.91 1.315v-2.631z"></path>
<path d="M15.013 12.459l1.91-1.315v2.631z"></path>
<path fill="none" stroke="#000" stroke-linejoin="round" stroke-linecap="round" stroke-miterlimit="10" stroke-width="1.0119" d="M15.013 12.459l1.91-1.315v2.631z"></path>
<path d="M17.341 12.459v0z"></path>
<path fill="none" stroke="#000" stroke-linejoin="round" stroke-linecap="round" stroke-miterlimit="10" stroke-width="1.0119" d="M29.61 12.459h-12.269"></path>
<path fill="none" stroke="#000" stroke-linejoin="round" stroke-linecap="round" stroke-miterlimit="10" stroke-width="2.1502" d="M2.555 20.794v5.869h4.237c0 0 0.126-1.657 1.568-1.657 1.455 0 1.568 1.657 1.568 1.657h8.601c0 0 0.405-5.869-4.857-5.869h-11.118z"></path>
<path fill="none" stroke="#000" stroke-linejoin="round" stroke-linecap="round" stroke-miterlimit="10" stroke-width="2.1502" d="M1.075 17.391h11.282v3.402h-11.282v-3.402z"></path>
<path fill="none" stroke="#000" stroke-linejoin="round" stroke-linecap="round" stroke-miterlimit="10" stroke-width="2.1502" d="M9.334 5.375l1.214 11.535"></path>
<path fill="none" stroke="#000" stroke-linejoin="round" stroke-linecap="round" stroke-miterlimit="10" stroke-width="2.1502" d="M2.555 16.911l-1.341-11.535"></path>
</svg>
