<?xml version="1.0" encoding="utf-8"?>
<!-- Generator: Adobe Illustrator 19.0.0, SVG Export Plug-In . SVG Version: 6.00 Build 0)  -->
<svg version="1.1" id="Layer_1" xmlns="http://www.w3.org/2000/svg" xmlns:xlink="http://www.w3.org/1999/xlink" x="0px" y="0px"
	 viewBox="0 0 496.5 978" style="enable-background:new 0 0 496.5 978;" xml:space="preserve">
<path d="M477.9,647.6c-0.1,102.5-73.6,190.1-174.5,208.1v50.2c0,30.1-24.4,54.5-54.5,54.5s-54.5-24.4-54.5-54.5V855
	c-70.3-17.6-128-67.5-155.5-134.6c-12.5-27.4-0.4-59.7,27.1-72.2c27.4-12.5,59.7-0.4,72.2,27.1c0.5,1,0.9,2,1.3,3.1
	c18.6,44.5,62.1,73.4,110.4,73.3c57.6,0,119.5-32.9,119.5-104.9c0-19,0-76.3-130.9-106.4h-2C50,496.7,22,389,22,328.1
	C22.1,225.7,95.7,138,196.5,120V70.5c0-30.1,24.4-54.5,54.5-54.5s54.5,24.4,54.5,54.5v50.8C376,138.5,434,188,462,254.8
	c11.7,27.8-1.4,59.7-29.1,71.4c-27.8,11.7-59.7-1.4-71.4-29.1c-18.6-44.5-62.1-73.4-110.4-73.3c-57.6,0-119.5,32.9-119.5,104.9
	c0,19,0,76.3,130.9,106.4h2C450,478.8,477.9,587,477.9,647.6z"/>
</svg>
