<?xml version="1.0" encoding="utf-8"?>
<!-- Generator: Adobe Illustrator 19.0.0, SVG Export Plug-In . SVG Version: 6.00 Build 0)  -->
<svg version="1.1" id="Layer_1" xmlns="http://www.w3.org/2000/svg" xmlns:xlink="http://www.w3.org/1999/xlink" x="0px" y="0px"
	 viewBox="0 0 756.1 747.1" style="enable-background:new 0 0 756.1 747.1;" xml:space="preserve">
<g>
	<path d="M320,544.5c-10.5,0.5-21.4,0.8-32.9,0.8c-114,0-176.9-26.3-186.3-38.4v-62c52.8,22.4,131.2,29.7,186.3,29.7
		c13.5,0,28.3-0.4,43.8-1.4c7.2-21.7,17.6-41.9,30.8-60c-21.8,2.6-46.7,4.2-74.6,4.2c-114,0-176.9-26.3-186.3-38.4V317
		c52.8,22.4,131.2,29.7,186.3,29.7s133.4-7.3,186.3-29.7v16.2c18.2-5.6,37.4-8.9,57.3-9.6V125.3c0-73.8-153.1-93.5-243.5-93.5
		S43.6,51.5,43.6,125.3V509c0,73.8,153.1,93.5,243.5,93.5c12.7,0,26.6-0.4,41.2-1.3C323.1,583.2,320.2,564.2,320,544.5z M287.1,89.1
		c107.6,0,169.7,23.4,184.2,36.2c-14.5,12.8-76.6,36.2-184.2,36.2c-107.6,0-169.7-23.4-184.2-36.2
		C117.4,112.6,179.5,89.1,287.1,89.1z M100.8,189.1c52.8,22.4,131.2,29.7,186.3,29.7s133.4-7.3,186.3-29.7v61.9
		c-9.3,12.1-72.2,38.4-186.3,38.4c-114,0-176.9-26.3-186.3-38.4V189.1z"/>
	<path d="M537.9,363.7c-98.2,0-177.8,79.6-177.8,177.8c0,98.2,79.6,177.8,177.8,177.8c98.2,0,177.8-79.6,177.8-177.8
		C715.7,443.3,636.1,363.7,537.9,363.7z M551.5,634.9v12.7c0,7.6-6.2,13.9-13.9,13.9s-13.9-6.2-13.9-13.9v-12.9
		c-17.9-4.5-32.5-17.2-39.5-34.2c-3.2-7-0.1-15.2,6.9-18.3s15.2-0.1,18.3,6.9c0.1,0.3,0.2,0.5,0.3,0.8c4.7,11.3,15.8,18.6,28,18.6
		c14.6,0,30.4-8.4,30.4-26.6c0-4.8,0-19.4-33.2-27h-0.5c-47.4-11.1-54.5-38.4-54.5-53.9c0-26,18.7-48.3,44.3-52.9v-12.6
		c0-7.6,6.2-13.9,13.9-13.9c7.6,0,13.8,6.2,13.8,13.9v12.9c17.9,4.3,32.6,16.9,39.7,33.9c3,7.1-0.3,15.2-7.4,18.1
		c-7.1,3-15.2-0.3-18.1-7.4c-4.7-11.3-15.8-18.6-28-18.6c-14.6,0-30.4,8.4-30.4,26.6c0,4.8,0,19.4,33.2,27h0.5
		c47.1,11.1,54.2,38.6,54.2,54C595.8,608,577.1,630.3,551.5,634.9z"/>
</g>
</svg>
