<!-- Generated by IcoMoon.io -->
<svg version="1.1" xmlns="http://www.w3.org/2000/svg" width="32" height="32" viewBox="0 0 32 32">
<title>visa</title>
<path d="M12.648 11.581h2.59l-1.524 9.295h-2.59l1.524-9.295zM20.419 15.39c-0.914-0.457-1.371-0.762-1.371-1.219s0.457-0.762 1.524-0.762c0.762 0 1.371 0.152 1.981 0.305l0.305 0.152v-1.981c-0.457-0.305-1.219-0.457-2.286-0.457-2.59 0-4.267 1.219-4.267 3.048 0 1.371 1.219 2.133 2.286 2.59 0.914 0.457 1.219 0.762 1.219 1.219 0 0.61-0.762 0.914-1.524 0.914-1.067 0-1.524-0.152-2.438-0.457l-0.305-0.152-0.305 1.981c0.61 0.305 1.676 0.457 2.895 0.457 2.743 0 4.419-1.219 4.419-3.2 0-1.067-0.762-1.829-2.133-2.438zM31.543 21.029h-2.438l-0.305-1.371h-3.2l-0.61 1.371h-2.743l3.81-8.533c0.305-0.61 0.762-0.762 1.371-0.762h1.981l2.133 9.295zM28.343 17.676l-0.61-2.743-0.152-0.762-0.305 0.914-1.067 2.59h2.133zM8.99 11.581l-2.59 6.4-0.152-1.371-0.914-4.267c-0.152-0.61-0.61-0.762-1.219-0.762h-4.114v0.152c1.067 0.305 1.829 0.61 2.743 1.067l2.286 8.076h2.743l3.962-9.295h-2.743z"></path>
</svg>
