<svg aria-hidden="true" style="position: absolute; width: 0; height: 0; overflow: hidden;" version="1.1" xmlns="http://www.w3.org/2000/svg" xmlns:xlink="http://www.w3.org/1999/xlink">
<defs>
<symbol id="icon-amex" viewBox="0 0 32 32">
<title>amex</title>
<path d="M20.114 13.867v1.067h3.2v1.219h-3.2v1.219h3.505l1.676-1.829-1.524-1.829h-3.657zM4.571 16h1.981l-0.914-2.286-1.067 2.286zM15.086 12.648h2.286v6.095h-1.371v-4.724l-2.133 4.571h-1.219l-2.133-4.724v4.724h-2.895l-0.61-1.219h-3.048l-0.457 1.219h-1.524l2.59-6.095h2.133l2.438 5.79v-5.638h2.286l1.829 4.114 1.829-4.114zM28.19 12.648h1.829l-2.743 3.048 2.743 3.048h-1.829l-1.829-1.981-1.981 1.829h-5.638v-6.095h5.79l1.829 1.981 1.829-1.829zM7.924 12.343v0 0 0zM27.429 11.429l-1.219 1.219-1.067-1.219h-10.971l-0.914 2.133-0.914-2.133h-8.686l-3.657 8.381h4.419l0.61-1.371h1.219l0.61 1.371h18.286l1.219-1.371 1.067 1.371h5.181l-3.657-4.114 3.657-4.267h-5.181z"></path>
</symbol>
<symbol id="icon-arrowSlider" viewBox="0 0 32 32">
<title>arrowSlider</title>
<path fill="none" stroke-linejoin="round" stroke-linecap="round" stroke-miterlimit="10" stroke-width="0.736" d="M13.478 14.832l2.506-2.506 2.506 2.506"></path>
<path fill="none" stroke-linejoin="round" stroke-linecap="round" stroke-miterlimit="10" stroke-width="0.736" d="M15.984 12.326v7.363"></path>
</symbol>
<symbol id="icon-cabin" viewBox="0 0 32 32">
<title>cabin</title>
<path stroke-linejoin="round" stroke-linecap="round" stroke-miterlimit="10" stroke-width="2.2573" d="M22.493 28.030h-12.999c-0.876 0-1.593-0.717-1.593-1.593v-14.526c0-0.876 0.717-1.593 1.593-1.593h12.999c0.876 0 1.593 0.717 1.593 1.593v14.526c0 0.876-0.717 1.593-1.593 1.593z"></path>
<path stroke-linejoin="round" stroke-linecap="round" stroke-miterlimit="10" stroke-width="2.2573" d="M12.415 10.051v-7.449c0-0.81 0.664-1.474 1.474-1.474h4.196c0.81 0 1.474 0.664 1.474 1.474v7.449"></path>
<path stroke-linejoin="round" stroke-linecap="round" stroke-miterlimit="10" stroke-width="2.2573" d="M11.167 30.924h0.757"></path>
<path stroke-linejoin="round" stroke-linecap="round" stroke-miterlimit="10" stroke-width="2.2573" d="M20.063 30.924h0.744"></path>
</symbol>
<symbol id="icon-chacked" viewBox="0 0 32 32">
<title>chacked</title>
<path fill="none" stroke-linejoin="round" stroke-linecap="round" stroke-miterlimit="10" stroke-width="4.0902" d="M2.045 9.504l11.501 17.805 16.361-22.617"></path>
</symbol>
<symbol id="icon-mc" viewBox="0 0 32 32">
<title>mc</title>
<path d="M32.337 13.305c0 5.558-4.379 9.937-9.937 9.937s-10.105-4.379-10.105-9.937c0-5.558 4.547-9.937 10.105-9.937s9.937 4.379 9.937 9.937zM11.284 13.305c0-3.368 1.516-6.4 3.874-8.421-1.516-1.011-3.2-1.516-5.221-1.516-5.558 0-9.937 4.379-9.937 9.937s4.379 9.937 9.937 9.937c1.853 0 3.705-0.505 5.221-1.516-2.358-2.021-3.874-5.053-3.874-8.421zM5.895 28.295v-1.684c0-0.674-0.337-1.011-1.011-1.011-0.337 0-0.674 0.168-1.011 0.505-0.168-0.337-0.505-0.505-0.842-0.505s-0.505 0.168-0.842 0.337v-0.337h-0.505v2.695h0.505v-1.516c0-0.505 0.337-0.674 0.674-0.674s0.505 0.168 0.505 0.674v1.516h0.505v-1.516c0-0.505 0.337-0.674 0.674-0.674s0.505 0.168 0.505 0.674v1.516h0.842zM14.484 25.6h-1.011v-0.842h-0.505v0.842h-0.505v0.505h0.505v1.179c0 0.674 0.168 1.011 0.842 1.011 0.168 0 0.505 0 0.674-0.168l-0.168-0.505-0.505 0.168c-0.337 0-0.337-0.168-0.337-0.505v-1.179h1.011v-0.505zM19.368 25.6c-0.337 0-0.505 0.168-0.674 0.337v-0.337h-0.505v2.695h0.505v-1.516c0-0.505 0.168-0.674 0.505-0.674h0.337l0.168-0.505h-0.337zM11.958 25.937c-0.337-0.168-0.674-0.337-1.011-0.337-0.674 0-1.179 0.337-1.179 0.842s0.337 0.674 0.842 0.842h0.337c0.337 0 0.505 0.168 0.505 0.337s-0.168 0.337-0.674 0.337c-0.337 0-0.674-0.168-0.842-0.337l-0.337 0.505c0.337 0.168 0.674 0.337 1.179 0.337 0.842 0 1.179-0.337 1.179-0.842s-0.337-0.674-0.842-0.842h-0.337c-0.168 0-0.505 0-0.505-0.337 0-0.168 0.168-0.337 0.505-0.337s0.674 0.168 0.842 0.168l0.337-0.337zM27.453 25.6c-0.337 0-0.505 0.168-0.674 0.337v-0.337h-0.505v2.695h0.505v-1.516c0-0.505 0.168-0.674 0.505-0.674h0.337l0.168-0.505h-0.337zM19.874 26.947c0 0.842 0.505 1.347 1.347 1.347 0.337 0 0.674-0.168 1.011-0.337l-0.337-0.505c-0.168 0.168-0.505 0.168-0.674 0.168-0.505 0-0.842-0.337-0.842-0.842s0.337-0.842 0.842-0.842c0.168 0 0.505 0.168 0.674 0.168l0.337-0.505c-0.337-0.168-0.505-0.337-1.011-0.337-0.674 0.337-1.347 0.842-1.347 1.684zM25.432 26.947v-1.347h-0.505v0.337c-0.168-0.168-0.505-0.337-0.842-0.337-0.674 0-1.347 0.505-1.347 1.347s0.505 1.347 1.347 1.347c0.337 0 0.674-0.168 0.842-0.337v0.337h0.505v-1.347zM23.242 26.947c0-0.505 0.337-0.842 0.842-0.842s0.842 0.337 0.842 0.842c0 0.505-0.337 0.842-0.842 0.842s-0.842-0.337-0.842-0.842zM16.337 25.6c-0.842 0-1.347 0.505-1.347 1.347s0.505 1.347 1.347 1.347c0.337 0 0.842-0.168 1.011-0.337l-0.337-0.505c-0.168 0.168-0.505 0.337-0.842 0.337s-0.674-0.168-0.842-0.674h2.021v-0.168c0.168-0.842-0.337-1.347-1.011-1.347zM16.168 26.105c0.337 0 0.674 0.168 0.674 0.674h-1.347c0.168-0.337 0.337-0.674 0.674-0.674zM30.653 26.947v-2.358h-0.505v1.347c-0.168-0.168-0.505-0.337-0.842-0.337-0.674 0-1.347 0.505-1.347 1.347s0.505 1.347 1.347 1.347c0.337 0 0.674-0.168 0.842-0.337v0.337h0.505v-1.347zM28.632 26.947c0-0.505 0.337-0.842 0.842-0.842s0.842 0.337 0.842 0.842c0 0.505-0.337 0.842-0.842 0.842-0.674 0-0.842-0.337-0.842-0.842zM9.095 26.947v-1.347h-0.505v0.337c-0.168-0.168-0.505-0.337-0.842-0.337-0.674 0-1.347 0.505-1.347 1.347s0.505 1.347 1.347 1.347c0.337 0 0.674-0.168 0.842-0.337v0.337h0.505v-1.347zM6.905 26.947c0-0.505 0.337-0.842 0.842-0.842s0.842 0.337 0.842 0.842c0 0.505-0.337 0.842-0.842 0.842s-0.842-0.337-0.842-0.842z"></path>
</symbol>
<symbol id="icon-paypal" viewBox="0 0 32 32">
<title>paypal</title>
<path d="M29.6 13.333c0 0.8 0 1.333-0.267 2.133-1.067 5.867-5.067 8-10.133 8h-0.533c-0.533 0-1.067 0.533-1.333 1.067l-1.067 6.933c0 0.533-0.533 1.067-1.333 1.067h-3.467c-0.533 0-0.8-0.533-0.8-1.067l1.867-12c0 0 0 0 0 0h2.933c7.2 0 11.467-3.467 12.8-10.133 1.067 0.8 1.333 2.4 1.333 4zM10.4 18.933c0.267-1.067 0.8-1.6 1.867-1.6h2.933c6.133 0 9.6-2.933 10.933-8.533s-2.667-8.8-8-8.8h-9.867c-0.8 0-1.333 0.533-1.6 1.333-2.933 20-4 25.067-4 26.667 0 0.533 0.267 0.8 0.8 0.8h5.333l1.6-9.867z"></path>
</symbol>
<symbol id="icon-seat" viewBox="0 0 32 32">
<title>seat</title>
<path stroke-linejoin="round" stroke-linecap="round" stroke-miterlimit="10" stroke-width="1.0894" d="M2.383 3.786c3.963-3.064 8.96-3.84 13.426-2.546"></path>
<path stroke-linejoin="round" stroke-linecap="round" stroke-miterlimit="10" stroke-width="1.0894" d="M1.43 4.521l0.422-1.403 1.035 1.294z"></path>
<path stroke-linejoin="round" stroke-linecap="round" stroke-miterlimit="10" stroke-width="1.0894" d="M17.021 1.743l-1.43 0.368 0.586-1.566z"></path>
<path stroke-linejoin="round" stroke-linecap="round" stroke-miterlimit="10" stroke-width="2.3149" d="M12.963 25.45c1.212 4.97 2.56 5.42 4.385 5.42l8.824-0.014c1.811 0 3.486-1.484 3.717-3.295s-1.062-3.295-2.873-3.295h-13.617"></path>
<path stroke-linejoin="round" stroke-linecap="round" stroke-miterlimit="10" stroke-width="2.3149" d="M8.592 7.489l4.371 17.961"></path>
<path stroke-linejoin="round" stroke-linecap="round" stroke-miterlimit="10" stroke-width="2.3149" d="M11.942 7.489l1.021 4.194"></path>
</symbol>
<symbol id="icon-shoe" viewBox="0 0 32 32">
<title>shoe</title>
<path d="M31.519 12.459l-1.91 1.315v-2.631z"></path>
<path stroke-linejoin="round" stroke-linecap="round" stroke-miterlimit="10" stroke-width="1.0119" d="M31.519 12.459l-1.91 1.315v-2.631z"></path>
<path d="M15.013 12.459l1.91-1.315v2.631z"></path>
<path stroke-linejoin="round" stroke-linecap="round" stroke-miterlimit="10" stroke-width="1.0119" d="M15.013 12.459l1.91-1.315v2.631z"></path>
<path d="M17.341 12.459v0z"></path>
<path stroke-linejoin="round" stroke-linecap="round" stroke-miterlimit="10" stroke-width="1.0119" d="M29.61 12.459h-12.269"></path>
<path stroke-linejoin="round" stroke-linecap="round" stroke-miterlimit="10" stroke-width="2.1502" d="M2.555 20.794v5.869h4.237c0 0 0.126-1.657 1.568-1.657 1.455 0 1.568 1.657 1.568 1.657h8.601c0 0 0.405-5.869-4.857-5.869h-11.118z"></path>
<path stroke-linejoin="round" stroke-linecap="round" stroke-miterlimit="10" stroke-width="2.1502" d="M1.075 17.391h11.282v3.402h-11.282v-3.402z"></path>
<path stroke-linejoin="round" stroke-linecap="round" stroke-miterlimit="10" stroke-width="2.1502" d="M9.334 5.375l1.214 11.535"></path>
<path stroke-linejoin="round" stroke-linecap="round" stroke-miterlimit="10" stroke-width="2.1502" d="M2.555 16.911l-1.341-11.535"></path>
</symbol>
<symbol id="icon-smile" viewBox="0 0 32 32">
<title>smile</title>
<path d="M12.495 11.048c1.006 0 1.829 0.808 1.829 1.813s-0.808 1.813-1.813 1.813c-1.006 0-1.813-0.808-1.813-1.813-0.015-1.006 0.792-1.813 1.798-1.813z"></path>
<path d="M19.459 11.048c1.006 0 1.813 0.808 1.813 1.813s-0.808 1.813-1.813 1.813c-1.006 0-1.813-0.808-1.813-1.813-0.015-1.006 0.808-1.813 1.813-1.813z"></path>
<path fill="none" stroke-linejoin="round" stroke-linecap="round" stroke-miterlimit="10" stroke-width="2.5905" d="M21.257 17.768c-2.91 2.91-7.634 2.91-10.56 0"></path>
<path fill="none" stroke-linejoin="round" stroke-linecap="round" stroke-miterlimit="10" stroke-width="2.5905" d="M19.413 4.724h-6.888c-6.171 0-11.23 5.059-11.23 11.23 0 2.225 0.655 4.297 1.783 6.050l-1.783 5.196 5.196-1.783c1.752 1.128 3.825 1.783 6.050 1.783h6.888c6.187 0 11.23-5.059 11.23-11.23 0-6.187-5.059-11.246-11.246-11.246z"></path>
</symbol>
<symbol id="icon-something" viewBox="0 0 32 32">
<title>something</title>
<path d="M13.706 23.322c-0.45 0.021-0.917 0.034-1.409 0.034-4.883 0-7.577-1.127-7.98-1.645v-2.656c2.262 0.959 5.62 1.272 7.98 1.272 0.578 0 1.212-0.017 1.876-0.060 0.308-0.929 0.754-1.795 1.319-2.57-0.934 0.111-2 0.18-3.195 0.18-4.883 0-7.577-1.127-7.98-1.645v-2.656c2.262 0.959 5.62 1.272 7.98 1.272s5.714-0.313 7.98-1.272v0.694c0.78-0.24 1.602-0.381 2.454-0.411v-8.494c0-3.161-6.558-4.005-10.43-4.005s-10.434 0.844-10.434 4.005v16.435c0 3.161 6.558 4.005 10.43 4.005 0.544 0 1.139-0.017 1.765-0.056-0.223-0.771-0.347-1.585-0.355-2.429zM12.297 3.816c4.609 0 7.269 1.002 7.89 1.551-0.621 0.548-3.281 1.551-7.89 1.551s-7.269-1.002-7.89-1.551c0.621-0.544 3.281-1.551 7.89-1.551zM4.317 8.1c2.262 0.959 5.62 1.272 7.98 1.272s5.714-0.313 7.98-1.272v2.651c-0.398 0.518-3.093 1.645-7.98 1.645-4.883 0-7.577-1.127-7.98-1.645v-2.651z"></path>
<path d="M23.040 15.578c-4.206 0-7.616 3.409-7.616 7.616s3.409 7.616 7.616 7.616c4.206 0 7.616-3.409 7.616-7.616s-3.409-7.616-7.616-7.616zM23.622 27.194v0.544c0 0.326-0.266 0.595-0.595 0.595s-0.595-0.266-0.595-0.595v-0.553c-0.767-0.193-1.392-0.737-1.692-1.465-0.137-0.3-0.004-0.651 0.296-0.784s0.651-0.004 0.784 0.296c0.004 0.013 0.009 0.021 0.013 0.034 0.201 0.484 0.677 0.797 1.199 0.797 0.625 0 1.302-0.36 1.302-1.139 0-0.206 0-0.831-1.422-1.156h-0.021c-2.030-0.475-2.334-1.645-2.334-2.309 0-1.114 0.801-2.069 1.897-2.266v-0.54c0-0.326 0.266-0.595 0.595-0.595 0.326 0 0.591 0.266 0.591 0.595v0.553c0.767 0.184 1.396 0.724 1.7 1.452 0.128 0.304-0.013 0.651-0.317 0.775-0.304 0.128-0.651-0.013-0.775-0.317-0.201-0.484-0.677-0.797-1.199-0.797-0.625 0-1.302 0.36-1.302 1.139 0 0.206 0 0.831 1.422 1.156h0.021c2.017 0.475 2.322 1.653 2.322 2.313 0.009 1.114-0.792 2.069-1.889 2.266z"></path>
</symbol>
<symbol id="icon-something2" viewBox="0 0 16 32">
<title>something2</title>
<path d="M15.637 21.189c-0.003 3.354-2.408 6.22-5.71 6.809v1.643c0 0.985-0.798 1.783-1.783 1.783s-1.783-0.798-1.783-1.783v-1.665c-2.3-0.576-4.188-2.209-5.088-4.404-0.409-0.897-0.013-1.953 0.887-2.362 0.897-0.409 1.953-0.013 2.362 0.887 0.016 0.033 0.029 0.065 0.043 0.101 0.609 1.456 2.032 2.402 3.612 2.398 1.885 0 3.91-1.076 3.91-3.432 0-0.622 0-2.497-4.283-3.481h-0.065c-6.102-1.43-7.018-4.954-7.018-6.946 0.003-3.351 2.411-6.22 5.71-6.809v-1.62c0-0.985 0.798-1.783 1.783-1.783s1.783 0.798 1.783 1.783v1.662c2.307 0.563 4.205 2.182 5.121 4.368 0.383 0.91-0.046 1.953-0.952 2.336-0.91 0.383-1.953-0.046-2.336-0.952-0.609-1.456-2.032-2.402-3.612-2.398-1.885 0-3.91 1.076-3.91 3.432 0 0.622 0 2.497 4.283 3.481h0.065c6.070 1.43 6.982 4.97 6.982 6.953z"></path>
</symbol>
<symbol id="icon-visa" viewBox="0 0 32 32">
<title>visa</title>
<path d="M12.648 11.581h2.59l-1.524 9.295h-2.59l1.524-9.295zM20.419 15.39c-0.914-0.457-1.371-0.762-1.371-1.219s0.457-0.762 1.524-0.762c0.762 0 1.371 0.152 1.981 0.305l0.305 0.152v-1.981c-0.457-0.305-1.219-0.457-2.286-0.457-2.59 0-4.267 1.219-4.267 3.048 0 1.371 1.219 2.133 2.286 2.59 0.914 0.457 1.219 0.762 1.219 1.219 0 0.61-0.762 0.914-1.524 0.914-1.067 0-1.524-0.152-2.438-0.457l-0.305-0.152-0.305 1.981c0.61 0.305 1.676 0.457 2.895 0.457 2.743 0 4.419-1.219 4.419-3.2 0-1.067-0.762-1.829-2.133-2.438zM31.543 21.029h-2.438l-0.305-1.371h-3.2l-0.61 1.371h-2.743l3.81-8.533c0.305-0.61 0.762-0.762 1.371-0.762h1.981l2.133 9.295zM28.343 17.676l-0.61-2.743-0.152-0.762-0.305 0.914-1.067 2.59h2.133zM8.99 11.581l-2.59 6.4-0.152-1.371-0.914-4.267c-0.152-0.61-0.61-0.762-1.219-0.762h-4.114v0.152c1.067 0.305 1.829 0.61 2.743 1.067l2.286 8.076h2.743l3.962-9.295h-2.743z"></path>
</symbol>
</defs>
</svg>
