<svg aria-hidden="true" style="position: absolute; width: 0; height: 0; overflow: hidden;" version="1.1" xmlns="http://www.w3.org/2000/svg" xmlns:xlink="http://www.w3.org/1999/xlink">
<defs>
<symbol id="icon-cabin" viewBox="0 0 32 32">
<title>cabin</title>
<path stroke-linejoin="round" stroke-linecap="round" stroke-miterlimit="10" stroke-width="2.2573" d="M22.493 28.030h-12.999c-0.876 0-1.593-0.717-1.593-1.593v-14.526c0-0.876 0.717-1.593 1.593-1.593h12.999c0.876 0 1.593 0.717 1.593 1.593v14.526c0 0.876-0.717 1.593-1.593 1.593z"></path>
<path stroke-linejoin="round" stroke-linecap="round" stroke-miterlimit="10" stroke-width="2.2573" d="M12.415 10.051v-7.449c0-0.81 0.664-1.474 1.474-1.474h4.196c0.81 0 1.474 0.664 1.474 1.474v7.449"></path>
<path stroke-linejoin="round" stroke-linecap="round" stroke-miterlimit="10" stroke-width="2.2573" d="M11.167 30.924h0.757"></path>
<path stroke-linejoin="round" stroke-linecap="round" stroke-miterlimit="10" stroke-width="2.2573" d="M20.063 30.924h0.744"></path>
</symbol>
<symbol id="icon-seat" viewBox="0 0 32 32">
<title>seat</title>
<path stroke-linejoin="round" stroke-linecap="round" stroke-miterlimit="10" stroke-width="1.0894" d="M2.383 3.786c3.963-3.064 8.96-3.84 13.426-2.546"></path>
<path stroke-linejoin="round" stroke-linecap="round" stroke-miterlimit="10" stroke-width="1.0894" d="M1.43 4.521l0.422-1.403 1.035 1.294z"></path>
<path stroke-linejoin="round" stroke-linecap="round" stroke-miterlimit="10" stroke-width="1.0894" d="M17.021 1.743l-1.43 0.368 0.586-1.566z"></path>
<path stroke-linejoin="round" stroke-linecap="round" stroke-miterlimit="10" stroke-width="2.3149" d="M12.963 25.45c1.212 4.97 2.56 5.42 4.385 5.42l8.824-0.014c1.811 0 3.486-1.484 3.717-3.295s-1.062-3.295-2.873-3.295h-13.617"></path>
<path stroke-linejoin="round" stroke-linecap="round" stroke-miterlimit="10" stroke-width="2.3149" d="M8.592 7.489l4.371 17.961"></path>
<path stroke-linejoin="round" stroke-linecap="round" stroke-miterlimit="10" stroke-width="2.3149" d="M11.942 7.489l1.021 4.194"></path>
</symbol>
<symbol id="icon-shoe" viewBox="0 0 32 32">
<title>shoe</title>
<path d="M31.519 12.459l-1.91 1.315v-2.631z"></path>
<path fill="none" stroke="#000" style="stroke: var(--color1, #000)" stroke-linejoin="round" stroke-linecap="round" stroke-miterlimit="10" stroke-width="1.0119" d="M31.519 12.459l-1.91 1.315v-2.631z"></path>
<path d="M15.013 12.459l1.91-1.315v2.631z"></path>
<path fill="none" stroke="#000" style="stroke: var(--color1, #000)" stroke-linejoin="round" stroke-linecap="round" stroke-miterlimit="10" stroke-width="1.0119" d="M15.013 12.459l1.91-1.315v2.631z"></path>
<path d="M17.341 12.459v0z"></path>
<path stroke-linejoin="round" stroke-linecap="round" stroke-miterlimit="10" stroke-width="1.0119" d="M29.61 12.459h-12.269"></path>
<path stroke-linejoin="round" stroke-linecap="round" stroke-miterlimit="10" stroke-width="2.1502" d="M2.555 20.794v5.869h4.237c0 0 0.126-1.657 1.568-1.657 1.455 0 1.568 1.657 1.568 1.657h8.601c0 0 0.405-5.869-4.857-5.869h-11.118z"></path>
<path stroke-linejoin="round" stroke-linecap="round" stroke-miterlimit="10" stroke-width="2.1502" d="M1.075 17.391h11.282v3.402h-11.282v-3.402z"></path>
<path stroke-linejoin="round" stroke-linecap="round" stroke-miterlimit="10" stroke-width="2.1502" d="M9.334 5.375l1.214 11.535"></path>
<path stroke-linejoin="round" stroke-linecap="round" stroke-miterlimit="10" stroke-width="2.1502" d="M2.555 16.911l-1.341-11.535"></path>
</symbol>
<symbol id="icon-smile" viewBox="0 0 32 32">
<title>smile</title>
<path d="M12.495 11.048c1.006 0 1.829 0.808 1.829 1.813s-0.808 1.813-1.813 1.813c-1.006 0-1.813-0.808-1.813-1.813-0.015-1.006 0.792-1.813 1.798-1.813z"></path>
<path d="M19.459 11.048c1.006 0 1.813 0.808 1.813 1.813s-0.808 1.813-1.813 1.813c-1.006 0-1.813-0.808-1.813-1.813-0.015-1.006 0.808-1.813 1.813-1.813z"></path>
<path fill="none" stroke="#002f9d" style="stroke: var(--color1, #002f9d)" stroke-linejoin="round" stroke-linecap="round" stroke-miterlimit="10" stroke-width="2.5905" d="M21.257 17.768c-2.91 2.91-7.634 2.91-10.56 0"></path>
<path fill="none" stroke="#002f9d" style="stroke: var(--color1, #002f9d)" stroke-linejoin="round" stroke-linecap="round" stroke-miterlimit="10" stroke-width="2.5905" d="M19.413 4.724h-6.888c-6.171 0-11.23 5.059-11.23 11.23 0 2.225 0.655 4.297 1.783 6.050l-1.783 5.196 5.196-1.783c1.752 1.128 3.825 1.783 6.050 1.783h6.888c6.187 0 11.23-5.059 11.23-11.23 0-6.187-5.059-11.246-11.246-11.246z"></path>
</symbol>
<symbol id="icon-Vector-Smart-Object1" viewBox="0 0 32 32">
<title>Vector-Smart-Object1</title>
<path d="M6.694 12.55c-0.070 0.003-0.144 0.006-0.221 0.006-0.768 0-1.194-0.179-1.258-0.259v-0.419c0.355 0.15 0.886 0.202 1.258 0.202 0.090 0 0.192-0.003 0.294-0.010 0.048-0.147 0.118-0.282 0.208-0.406-0.147 0.016-0.314 0.029-0.502 0.029-0.768 0-1.194-0.179-1.258-0.259v-0.419c0.355 0.15 0.886 0.202 1.258 0.202s0.899-0.048 1.258-0.202v0.109c0.122-0.038 0.253-0.061 0.387-0.064v-1.338c0-0.499-1.034-0.63-1.645-0.63s-1.645 0.134-1.645 0.63v2.589c0 0.499 1.034 0.63 1.645 0.63 0.086 0 0.179-0.003 0.278-0.010-0.035-0.122-0.054-0.25-0.058-0.381zM6.474 9.475c0.726 0 1.146 0.157 1.242 0.243-0.099 0.086-0.518 0.243-1.242 0.243-0.726 0-1.146-0.157-1.242-0.243 0.096-0.083 0.515-0.243 1.242-0.243zM5.216 10.15c0.355 0.15 0.886 0.202 1.258 0.202s0.899-0.048 1.258-0.202v0.419c-0.064 0.080-0.486 0.259-1.258 0.259-0.768 0-1.194-0.179-1.258-0.259v-0.419z"></path>
<path d="M8.166 11.331c-0.662 0-1.2 0.538-1.2 1.2s0.538 1.2 1.2 1.2c0.662 0 1.2-0.538 1.2-1.2 0-0.666-0.538-1.2-1.2-1.2zM8.256 13.158v0.086c0 0.051-0.042 0.093-0.093 0.093s-0.093-0.042-0.093-0.093v-0.086c-0.122-0.029-0.221-0.115-0.266-0.23-0.022-0.048 0-0.102 0.045-0.125s0.102 0 0.125 0.045c0 0.003 0 0.003 0.003 0.006 0.032 0.077 0.106 0.125 0.189 0.125 0.099 0 0.205-0.058 0.205-0.179 0-0.032 0-0.131-0.224-0.182h-0.003c-0.32-0.074-0.368-0.259-0.368-0.365 0-0.176 0.125-0.326 0.298-0.355v-0.086c0-0.051 0.042-0.093 0.093-0.093s0.093 0.042 0.093 0.093v0.086c0.122 0.029 0.221 0.115 0.269 0.23 0.019 0.048-0.003 0.102-0.051 0.122s-0.102-0.003-0.122-0.051c-0.032-0.077-0.106-0.125-0.189-0.125-0.099 0-0.205 0.058-0.205 0.179 0 0.032 0 0.131 0.224 0.182h0.003c0.317 0.074 0.365 0.259 0.365 0.365 0.003 0.179-0.125 0.33-0.298 0.358z"></path>
</symbol>
</defs>
</svg>
