<svg width="0" height="0" class="hidden">
  <symbol xmlns="http://www.w3.org/2000/svg" xmlns:xlink="http://www.w3.org/1999/xlink" viewBox="0 0 20.7 6.3" id="visa">
    <defs>
      <path id="a" d="M0 0h20.7v6.3H0z"></path>
    </defs>
    <clipPath id="b">
      <use xlink:href="#a" overflow="visible"></use>
    </clipPath>
    <path d="M8.3.1H10L9 6.2H7.3l1-6.1zm5.1 2.5c-.6-.3-.9-.5-.9-.8 0-.3.3-.5 1-.5.5 0 .9.1 1.3.2l.2.1V.3c-.3-.2-.8-.3-1.5-.3-1.7 0-2.8.8-2.8 2 0 .9.8 1.4 1.5 1.7.6.3.8.5.8.8 0 .4-.5.6-1 .6-.7 0-1-.1-1.6-.3l-.2-.1L10 6c.4.2 1.1.3 1.9.3 1.8 0 2.9-.8 2.9-2.1 0-.7-.5-1.2-1.4-1.6m7.3 3.7h-1.6l-.2-.9h-2.1l-.4.9h-1.8L17.1.7c.2-.4.5-.5.9-.5h1.3l1.4 6.1zm-2.1-2.2l-.4-1.8-.1-.5-.2.6-.7 1.7h1.4zM5.9.1L4.2 4.3l-.1-.9L3.5.6C3.4.2 3.1.1 2.7.1H0v.1c.7.2 1.2.4 1.8.7l1.5 5.3h1.8L7.7.1H5.9z"
      clip-path="url(#b)"></path>
  </symbol>
  <symbol xmlns="http://www.w3.org/2000/svg" viewBox="0 0 21.4 5.5" id="amex">
    <path d="M13.2 1.6v.7h2.1v.8h-2.1v.8h2.3l1.1-1.2-1-1.2h-2.4zM3 3h1.3l-.6-1.5L3 3zM9.9.8h1.5v4h-.9V1.7l-1.4 3h-.8L6.9 1.6v3.1H5l-.4-.8h-2l-.3.8h-1L3 .7h1.4L6 4.5V.8h1.5l1.2 2.7L9.9.8zm8.6 0h1.2l-1.8 2 1.8 2h-1.2l-1.2-1.3L16 4.7h-3.7v-4h3.8L17.3 2 18.5.8zM5.2.6zM18 0l-.8.8-.7-.8H9.3l-.6 1.4L8.1 0H2.4L0 5.5h2.9l.4-.9h.8l.4.9h12l.8-.9.7.9h3.4L19 2.8 21.4 0H18z"></path>
  </symbol>
  <symbol xmlns="http://www.w3.org/2000/svg" xmlns:xlink="http://www.w3.org/1999/xlink" viewBox="0 0 19.2 14.8" id="mc">
    <defs>
      <path id="a" d="M0 0h19.2v14.8H0z"></path>
    </defs>
    <clipPath id="b">
      <use xlink:href="#a" overflow="visible"></use>
    </clipPath>
    <path d="M19.2 5.9c0 3.3-2.6 5.9-5.9 5.9s-6-2.6-6-5.9c0-3.3 2.7-5.9 6-5.9s5.9 2.6 5.9 5.9m-12.5 0c0-2 .9-3.8 2.3-5C8.1.3 7.1 0 5.9 0 2.6 0 0 2.6 0 5.9c0 3.3 2.6 5.9 5.9 5.9 1.1 0 2.2-.3 3.1-.9-1.4-1.2-2.3-3-2.3-5m-3.2 8.9v-1c0-.4-.2-.6-.6-.6-.2 0-.4.1-.6.3-.1-.2-.3-.3-.5-.3s-.3.1-.5.2v-.2H1v1.6h.3v-.9c0-.3.2-.4.4-.4s.3.1.3.4v.9h.3v-.9c0-.3.2-.4.4-.4s.3.1.3.4v.9h.5zm5.1-1.6H8v-.5h-.3v.5h-.3v.3h.3v.7c0 .4.1.6.5.6.1 0 .3 0 .4-.1l-.1-.3-.3.1c-.2 0-.2-.1-.2-.3v-.7h.6v-.3zm2.9 0c-.2 0-.3.1-.4.2v-.2h-.3v1.6h.3v-.9c0-.3.1-.4.3-.4h.2l.1-.3h-.2zm-4.4.2c-.2-.1-.4-.2-.6-.2-.4 0-.7.2-.7.5s.2.4.5.5h.2c.2 0 .3.1.3.2s-.1.2-.4.2c-.2 0-.4-.1-.5-.2l-.2.3c.2.1.4.2.7.2.5 0 .7-.2.7-.5s-.2-.4-.5-.5h-.2c-.1 0-.3 0-.3-.2 0-.1.1-.2.3-.2.2 0 .4.1.5.1l.2-.2zm9.2-.2c-.2 0-.3.1-.4.2v-.2h-.3v1.6h.3v-.9c0-.3.1-.4.3-.4h.2l.1-.3h-.2zm-4.5.8c0 .5.3.8.8.8.2 0 .4-.1.6-.2l-.2-.3c-.1.1-.3.1-.4.1-.3 0-.5-.2-.5-.5s.2-.5.5-.5c.1 0 .3.1.4.1l.2-.3c-.2-.1-.3-.2-.6-.2-.4.2-.8.5-.8 1m3.3 0v-.8h-.3v.2c-.1-.1-.3-.2-.5-.2-.4 0-.8.3-.8.8s.3.8.8.8c.2 0 .4-.1.5-.2v.2h.3V14zm-1.3 0c0-.3.2-.5.5-.5s.5.2.5.5-.2.5-.5.5-.5-.2-.5-.5m-4.1-.8c-.5 0-.8.3-.8.8s.3.8.8.8c.2 0 .5-.1.6-.2l-.2-.3c-.1.1-.3.2-.5.2s-.4-.1-.5-.4h1.2V14c.1-.5-.2-.8-.6-.8m-.1.3c.2 0 .4.1.4.4h-.8c.1-.2.2-.4.4-.4m8.6.5v-1.4h-.3v.8c-.1-.1-.3-.2-.5-.2-.4 0-.8.3-.8.8s.3.8.8.8c.2 0 .4-.1.5-.2v.2h.3V14zM17 14c0-.3.2-.5.5-.5s.5.2.5.5-.2.5-.5.5c-.4 0-.5-.2-.5-.5M5.4 14v-.8h-.3v.2c-.1-.1-.3-.2-.5-.2-.4 0-.8.3-.8.8s.3.8.8.8c.2 0 .4-.1.5-.2v.2h.3V14zm-1.3 0c0-.3.2-.5.5-.5s.5.2.5.5-.2.5-.5.5-.5-.2-.5-.5"
      clip-path="url(#b)"></path>
  </symbol>
  <symbol xmlns="http://www.w3.org/2000/svg" xmlns:xlink="http://www.w3.org/1999/xlink" viewBox="0 0 10.1 12.2" id="paypal">
    <defs>
      <path id="a" d="M0 0h10.1v12.2H0z"></path>
    </defs>
    <clipPath id="b">
      <use xlink:href="#a" overflow="visible"></use>
    </clipPath>
    <path d="M10.1 5c0 .3 0 .5-.1.8-.4 2.2-1.9 3-3.8 3H6c-.2 0-.4.2-.5.4l-.4 2.6c0 .2-.2.4-.5.4H3.3c-.2 0-.3-.2-.3-.4l.7-4.5h1.1c2.7 0 4.3-1.3 4.8-3.8.4.3.5.9.5 1.5M2.9 7.1c.1-.4.3-.6.7-.6h1.1c2.3 0 3.6-1.1 4.1-3.2.5-2.1-1-3.3-3-3.3H2.1c-.3 0-.5.2-.6.5C.4 8 0 9.9 0 10.5c0 .2.1.3.3.3h2l.6-3.7z"
      clip-path="url(#b)"></path>
  </symbol>
  <symbol xmlns="http://www.w3.org/2000/svg" viewBox="0 0 32 32" id="seat">
    <title>seat</title>
    <path  stroke-linejoin="round" stroke-linecap="round" stroke-miterlimit="10" stroke-width="1.089" d="M2.383 3.786C6.346.722 11.343-.054 15.809 1.24M1.43 4.521l.422-1.403 1.035 1.294zm15.591-2.778l-1.43.368.586-1.566z"></path>
    <path  stroke-linejoin="round" stroke-linecap="round" stroke-miterlimit="10" stroke-width="2.315" d="M12.963 25.45c1.212 4.97 2.56 5.42 4.385 5.42l8.824-.014c1.811 0 3.486-1.484 3.717-3.295s-1.062-3.295-2.873-3.295H13.399M8.592 7.489l4.371 17.961M11.942 7.489l1.021 4.194"></path>
  </symbol>
  <symbol xmlns="http://www.w3.org/2000/svg" viewBox="0 0 32 32" id="cabin">
    <title>cabin</title>
    <path stroke-linejoin="round" stroke-linecap="round" stroke-miterlimit="10" stroke-width="2.257" d="M22.493 28.03H9.494a1.598 1.598 0 0 1-1.593-1.593V11.911c0-.876.717-1.593 1.593-1.593h12.999c.876 0 1.593.717 1.593 1.593v14.526c0 .876-.717 1.593-1.593 1.593zM12.415 10.051V2.602c0-.81.664-1.474 1.474-1.474h4.196c.81 0 1.474.664 1.474 1.474v7.449m-8.392 20.873h.757m8.139 0h.744"></path>
  </symbol>
  <symbol xmlns="http://www.w3.org/2000/svg" viewBox="0 0 32 32" id="shoe">
    <title>shoe</title>
    <path d="M31.519 12.459l-1.91 1.315v-2.631z"></path>
    <path  stroke-linejoin="round" stroke-linecap="round" stroke-miterlimit="10" stroke-width="1.012" d="M31.519 12.459l-1.91 1.315v-2.631z"></path>
    <path d="M15.013 12.459l1.91-1.315v2.631z"></path>
    <path stroke-linejoin="round" stroke-linecap="round" stroke-miterlimit="10" stroke-width="1.012" d="M15.013 12.459l1.91-1.315v2.631zm14.597 0H17.341"></path>
    <path stroke-linejoin="round" stroke-linecap="round" stroke-miterlimit="10" stroke-width="2.15" d="M2.555 20.794v5.869h4.237s.126-1.657 1.568-1.657c1.455 0 1.568 1.657 1.568 1.657h8.601s.405-5.869-4.857-5.869H2.554zm-1.48-3.403h11.282v3.402H1.075v-3.402zM9.334 5.375l1.214 11.535m-7.993.001L1.214 5.376"></path>
  </symbol>
  <symbol xmlns="http://www.w3.org/2000/svg" viewBox="0 0 32 32" id="smile">
    <title>smile</title>
    <path d="M12.495 11.048c1.006 0 1.829.808 1.829 1.813s-.808 1.813-1.813 1.813a1.808 1.808 0 0 1-1.813-1.813 1.785 1.785 0 0 1 1.798-1.813zm6.964 0c1.006 0 1.813.808 1.813 1.813s-.808 1.813-1.813 1.813a1.808 1.808 0 0 1-1.813-1.813c-.015-1.006.808-1.813 1.813-1.813z"></path>
    <path fill="none" stroke-linejoin="round" stroke-linecap="round" stroke-miterlimit="10" stroke-width="2.591" d="M21.257 17.768c-2.91 2.91-7.634 2.91-10.56 0m8.716-13.044h-6.888c-6.171 0-11.23 5.059-11.23 11.23 0 2.225.655 4.297 1.783 6.05L1.295 27.2l5.196-1.783a11.133 11.133 0 0 0 6.05 1.783h6.888c6.187 0 11.23-5.059 11.23-11.23 0-6.187-5.059-11.246-11.246-11.246z"></path>
  </symbol>
</svg>